<?xml version="1.0" encoding="UTF-8"?>
<svg xmlns="http://www.w3.org/2000/svg" width="1200" height="390" viewBox="0 0 1200 390">
<style>
      text { font-family: Arial, Helvetica, sans-serif; fill: #1f2937; }
      .title { font-size: 17px; font-weight: 700; }
      .axis-label { font-size: 12px; font-weight: 600; }
      .tick { font-size: 10px; fill: #4b5563; }
      .panel-title { font-size: 13px; font-weight: 700; }
      .grid { stroke: #e5e7eb; stroke-width: 1; }
      .axis { stroke: #6b7280; stroke-width: 1.2; }
      .series { fill: none; stroke-width: 2.5; stroke-linecap: round; stroke-linejoin: round; }
      .marker { stroke-width: 1.5; }
      .raw-point { opacity: 0.65; }
    </style>
<text class="panel-title" x="206" y="34" text-anchor="middle">Average Latency</text>
<line class="grid" x1="76" y1="330.00" x2="378" y2="330.00" />
<text class="tick" x="68" y="333.00" text-anchor="end">82</text>
<line class="grid" x1="76" y1="234.67" x2="378" y2="234.67" />
<text class="tick" x="68" y="237.67" text-anchor="end">84</text>
<line class="grid" x1="76" y1="139.33" x2="378" y2="139.33" />
<text class="tick" x="68" y="142.33" text-anchor="end">86</text>
<line class="grid" x1="76" y1="44.00" x2="378" y2="44.00" />
<text class="tick" x="68" y="47.00" text-anchor="end">88</text>
<line class="grid" x1="126.33" y1="44" x2="126.33" y2="330" />
<text class="tick" x="126.33" y="346" text-anchor="middle">128</text>
<line class="grid" x1="227.00" y1="44" x2="227.00" y2="330" />
<text class="tick" x="227.00" y="346" text-anchor="middle">512</text>
<line class="grid" x1="327.67" y1="44" x2="327.67" y2="330" />
<text class="tick" x="327.67" y="346" text-anchor="middle">1024</text>
<line class="axis" x1="76" y1="330" x2="378" y2="330" />
<line class="axis" x1="76" y1="44" x2="76" y2="330" />
<path class="series" stroke="#2563eb" d="M 126.33 111.69 L 227.00 216.08 L 327.67 230.38" />
<line x1="126.33" y1="97.86" x2="126.33" y2="125.51" stroke="#2563eb" stroke-width="1.4" />
<line x1="121.33" y1="97.86" x2="131.33" y2="97.86" stroke="#2563eb" stroke-width="1.4" />
<line x1="121.33" y1="125.51" x2="131.33" y2="125.51" stroke="#2563eb" stroke-width="1.4" />
<line x1="227.00" y1="161.26" x2="227.00" y2="270.89" stroke="#2563eb" stroke-width="1.4" />
<line x1="222.00" y1="161.26" x2="232.00" y2="161.26" stroke="#2563eb" stroke-width="1.4" />
<line x1="222.00" y1="270.89" x2="232.00" y2="270.89" stroke="#2563eb" stroke-width="1.4" />
<line x1="327.67" y1="226.09" x2="327.67" y2="234.67" stroke="#2563eb" stroke-width="1.4" />
<line x1="322.67" y1="226.09" x2="332.67" y2="226.09" stroke="#2563eb" stroke-width="1.4" />
<line x1="322.67" y1="234.67" x2="332.67" y2="234.67" stroke="#2563eb" stroke-width="1.4" />
<circle class="marker" cx="126.33" cy="111.69" r="4.2" fill="#ffffff" stroke="#2563eb" />
<circle class="marker" cx="227.00" cy="216.08" r="4.2" fill="#ffffff" stroke="#2563eb" />
<circle class="marker" cx="327.67" cy="230.38" r="4.2" fill="#ffffff" stroke="#2563eb" />
<text class="axis-label" x="227" y="366" text-anchor="middle">Memory (MB)</text>
<text class="axis-label" transform="translate(34, 187) rotate(-90)" text-anchor="middle">Average Latency (ms)</text>
<text class="panel-title" x="600" y="34" text-anchor="middle">P95 Latency</text>
<line class="grid" x1="470" y1="330.00" x2="772" y2="330.00" />
<text class="tick" x="462" y="333.00" text-anchor="end">85</text>
<line class="grid" x1="470" y1="258.50" x2="772" y2="258.50" />
<text class="tick" x="462" y="261.50" text-anchor="end">90</text>
<line class="grid" x1="470" y1="187.00" x2="772" y2="187.00" />
<text class="tick" x="462" y="190.00" text-anchor="end">95</text>
<line class="grid" x1="470" y1="115.50" x2="772" y2="115.50" />
<text class="tick" x="462" y="118.50" text-anchor="end">100</text>
<line class="grid" x1="470" y1="44.00" x2="772" y2="44.00" />
<text class="tick" x="462" y="47.00" text-anchor="end">105</text>
<line class="grid" x1="520.33" y1="44" x2="520.33" y2="330" />
<text class="tick" x="520.33" y="346" text-anchor="middle">128</text>
<line class="grid" x1="621.00" y1="44" x2="621.00" y2="330" />
<text class="tick" x="621.00" y="346" text-anchor="middle">512</text>
<line class="grid" x1="721.67" y1="44" x2="721.67" y2="330" />
<text class="tick" x="721.67" y="346" text-anchor="middle">1024</text>
<line class="axis" x1="470" y1="330" x2="772" y2="330" />
<line class="axis" x1="470" y1="44" x2="470" y2="330" />
<path class="series" stroke="#ea580c" d="M 520.33 185.57 L 621.00 182.42 L 721.67 191.15" />
<line x1="520.33" y1="163.12" x2="520.33" y2="208.02" stroke="#ea580c" stroke-width="1.4" />
<line x1="515.33" y1="163.12" x2="525.33" y2="163.12" stroke="#ea580c" stroke-width="1.4" />
<line x1="515.33" y1="208.02" x2="525.33" y2="208.02" stroke="#ea580c" stroke-width="1.4" />
<line x1="621.00" y1="108.64" x2="621.00" y2="256.21" stroke="#ea580c" stroke-width="1.4" />
<line x1="616.00" y1="108.64" x2="626.00" y2="108.64" stroke="#ea580c" stroke-width="1.4" />
<line x1="616.00" y1="256.21" x2="626.00" y2="256.21" stroke="#ea580c" stroke-width="1.4" />
<line x1="721.67" y1="184.43" x2="721.67" y2="197.87" stroke="#ea580c" stroke-width="1.4" />
<line x1="716.67" y1="184.43" x2="726.67" y2="184.43" stroke="#ea580c" stroke-width="1.4" />
<line x1="716.67" y1="197.87" x2="726.67" y2="197.87" stroke="#ea580c" stroke-width="1.4" />
<circle class="marker" cx="520.33" cy="185.57" r="4.2" fill="#ffffff" stroke="#ea580c" />
<circle class="marker" cx="621.00" cy="182.42" r="4.2" fill="#ffffff" stroke="#ea580c" />
<circle class="marker" cx="721.67" cy="191.15" r="4.2" fill="#ffffff" stroke="#ea580c" />
<text class="axis-label" x="621" y="366" text-anchor="middle">Memory (MB)</text>
<text class="axis-label" transform="translate(428, 187) rotate(-90)" text-anchor="middle">P95 Latency (ms)</text>
<text class="panel-title" x="994" y="34" text-anchor="middle">Lambda Average Duration</text>
<line class="grid" x1="864" y1="330.00" x2="1166" y2="330.00" />
<text class="tick" x="856" y="333.00" text-anchor="end">0</text>
<line class="grid" x1="864" y1="234.67" x2="1166" y2="234.67" />
<text class="tick" x="856" y="237.67" text-anchor="end">2</text>
<line class="grid" x1="864" y1="139.33" x2="1166" y2="139.33" />
<text class="tick" x="856" y="142.33" text-anchor="end">4</text>
<line class="grid" x1="864" y1="44.00" x2="1166" y2="44.00" />
<text class="tick" x="856" y="47.00" text-anchor="end">6</text>
<line class="grid" x1="914.33" y1="44" x2="914.33" y2="330" />
<text class="tick" x="914.33" y="346" text-anchor="middle">128</text>
<line class="grid" x1="1015.00" y1="44" x2="1015.00" y2="330" />
<text class="tick" x="1015.00" y="346" text-anchor="middle">512</text>
<line class="grid" x1="1115.67" y1="44" x2="1115.67" y2="330" />
<text class="tick" x="1115.67" y="346" text-anchor="middle">1024</text>
<line class="axis" x1="864" y1="330" x2="1166" y2="330" />
<line class="axis" x1="864" y1="44" x2="864" y2="330" />
<path class="series" stroke="#059669" d="M 914.33 136.00 L 1015.00 262.31 L 1115.67 264.22" />
<line x1="914.33" y1="123.13" x2="914.33" y2="148.87" stroke="#059669" stroke-width="1.4" />
<line x1="909.33" y1="123.13" x2="919.33" y2="123.13" stroke="#059669" stroke-width="1.4" />
<line x1="909.33" y1="148.87" x2="919.33" y2="148.87" stroke="#059669" stroke-width="1.4" />
<line x1="1015.00" y1="259.93" x2="1015.00" y2="264.70" stroke="#059669" stroke-width="1.4" />
<line x1="1010.00" y1="259.93" x2="1020.00" y2="259.93" stroke="#059669" stroke-width="1.4" />
<line x1="1010.00" y1="264.70" x2="1020.00" y2="264.70" stroke="#059669" stroke-width="1.4" />
<line x1="1115.67" y1="258.02" x2="1115.67" y2="270.42" stroke="#059669" stroke-width="1.4" />
<line x1="1110.67" y1="258.02" x2="1120.67" y2="258.02" stroke="#059669" stroke-width="1.4" />
<line x1="1110.67" y1="270.42" x2="1120.67" y2="270.42" stroke="#059669" stroke-width="1.4" />
<circle class="marker" cx="914.33" cy="136.00" r="4.2" fill="#ffffff" stroke="#059669" />
<circle class="marker" cx="1015.00" cy="262.31" r="4.2" fill="#ffffff" stroke="#059669" />
<circle class="marker" cx="1115.67" cy="264.22" r="4.2" fill="#ffffff" stroke="#059669" />
<text class="axis-label" x="1015" y="366" text-anchor="middle">Memory (MB)</text>
<text class="axis-label" transform="translate(822, 187) rotate(-90)" text-anchor="middle">Lambda Duration (ms)</text>
</svg>