<?xml version="1.0" encoding="UTF-8"?>
<svg xmlns="http://www.w3.org/2000/svg" width="1100" height="760" viewBox="0 0 1100 760">
<style>
      text { font-family: Arial, Helvetica, sans-serif; fill: #1f2937; }
      .title { font-size: 17px; font-weight: 700; }
      .axis-label { font-size: 12px; font-weight: 600; }
      .tick { font-size: 10px; fill: #4b5563; }
      .panel-title { font-size: 13px; font-weight: 700; }
      .grid { stroke: #e5e7eb; stroke-width: 1; }
      .axis { stroke: #6b7280; stroke-width: 1.2; }
      .series { fill: none; stroke-width: 2.5; stroke-linecap: round; stroke-linejoin: round; }
      .marker { stroke-width: 1.5; }
      .raw-point { opacity: 0.65; }
    </style>
<text class="panel-title" x="279.5" y="34" text-anchor="middle">Average Latency</text>
<line class="grid" x1="76" y1="329.00" x2="525" y2="329.00" />
<text class="tick" x="68" y="332.00" text-anchor="end">80</text>
<line class="grid" x1="76" y1="234.00" x2="525" y2="234.00" />
<text class="tick" x="68" y="237.00" text-anchor="end">85</text>
<line class="grid" x1="76" y1="139.00" x2="525" y2="139.00" />
<text class="tick" x="68" y="142.00" text-anchor="end">90</text>
<line class="grid" x1="76" y1="44.00" x2="525" y2="44.00" />
<text class="tick" x="68" y="47.00" text-anchor="end">95</text>
<line class="grid" x1="76.00" y1="44" x2="76.00" y2="329" />
<text class="tick" x="76.00" y="345" text-anchor="middle">5</text>
<line class="grid" x1="87.51" y1="44" x2="87.51" y2="329" />
<text class="tick" x="87.51" y="345" text-anchor="middle">10</text>
<line class="grid" x1="110.54" y1="44" x2="110.54" y2="329" />
<text class="tick" x="110.54" y="345" text-anchor="middle">20</text>
<line class="grid" x1="179.62" y1="44" x2="179.62" y2="329" />
<text class="tick" x="179.62" y="345" text-anchor="middle">50</text>
<line class="grid" x1="294.74" y1="44" x2="294.74" y2="329" />
<text class="tick" x="294.74" y="345" text-anchor="middle">100</text>
<line class="grid" x1="525.00" y1="44" x2="525.00" y2="329" />
<text class="tick" x="525.00" y="345" text-anchor="middle">200</text>
<line class="axis" x1="76" y1="329" x2="525" y2="329" />
<line class="axis" x1="76" y1="44" x2="76" y2="329" />
<path class="series" stroke="#2563eb" d="M 76.00 230.39 L 87.51 233.81 L 110.54 244.07 L 179.62 188.97 L 294.74 203.98 L 525.00 161.42" />
<line x1="76.00" y1="184.98" x2="76.00" y2="275.80" stroke="#2563eb" stroke-width="1.4" />
<line x1="71.00" y1="184.98" x2="81.00" y2="184.98" stroke="#2563eb" stroke-width="1.4" />
<line x1="71.00" y1="275.80" x2="81.00" y2="275.80" stroke="#2563eb" stroke-width="1.4" />
<line x1="87.51" y1="212.53" x2="87.51" y2="255.09" stroke="#2563eb" stroke-width="1.4" />
<line x1="82.51" y1="212.53" x2="92.51" y2="212.53" stroke="#2563eb" stroke-width="1.4" />
<line x1="82.51" y1="255.09" x2="92.51" y2="255.09" stroke="#2563eb" stroke-width="1.4" />
<line x1="110.54" y1="222.22" x2="110.54" y2="265.92" stroke="#2563eb" stroke-width="1.4" />
<line x1="105.54" y1="222.22" x2="115.54" y2="222.22" stroke="#2563eb" stroke-width="1.4" />
<line x1="105.54" y1="265.92" x2="115.54" y2="265.92" stroke="#2563eb" stroke-width="1.4" />
<line x1="179.62" y1="143.37" x2="179.62" y2="234.57" stroke="#2563eb" stroke-width="1.4" />
<line x1="174.62" y1="143.37" x2="184.62" y2="143.37" stroke="#2563eb" stroke-width="1.4" />
<line x1="174.62" y1="234.57" x2="184.62" y2="234.57" stroke="#2563eb" stroke-width="1.4" />
<line x1="294.74" y1="198.47" x2="294.74" y2="209.49" stroke="#2563eb" stroke-width="1.4" />
<line x1="289.74" y1="198.47" x2="299.74" y2="198.47" stroke="#2563eb" stroke-width="1.4" />
<line x1="289.74" y1="209.49" x2="299.74" y2="209.49" stroke="#2563eb" stroke-width="1.4" />
<line x1="525.00" y1="109.36" x2="525.00" y2="213.48" stroke="#2563eb" stroke-width="1.4" />
<line x1="520.00" y1="109.36" x2="530.00" y2="109.36" stroke="#2563eb" stroke-width="1.4" />
<line x1="520.00" y1="213.48" x2="530.00" y2="213.48" stroke="#2563eb" stroke-width="1.4" />
<circle class="marker" cx="76.00" cy="230.39" r="4.2" fill="#ffffff" stroke="#2563eb" />
<circle class="marker" cx="87.51" cy="233.81" r="4.2" fill="#ffffff" stroke="#2563eb" />
<circle class="marker" cx="110.54" cy="244.07" r="4.2" fill="#ffffff" stroke="#2563eb" />
<circle class="marker" cx="179.62" cy="188.97" r="4.2" fill="#ffffff" stroke="#2563eb" />
<circle class="marker" cx="294.74" cy="203.98" r="4.2" fill="#ffffff" stroke="#2563eb" />
<circle class="marker" cx="525.00" cy="161.42" r="4.2" fill="#ffffff" stroke="#2563eb" />
<text class="axis-label" x="300.5" y="365" text-anchor="middle">Arrival Rate (requests/s)</text>
<text class="axis-label" transform="translate(34, 186.5) rotate(-90)" text-anchor="middle">Average Latency (ms)</text>
<text class="panel-title" x="820.5" y="34" text-anchor="middle">P95 Latency</text>
<line class="grid" x1="617" y1="329.00" x2="1066" y2="329.00" />
<text class="tick" x="609" y="332.00" text-anchor="end">80</text>
<line class="grid" x1="617" y1="257.75" x2="1066" y2="257.75" />
<text class="tick" x="609" y="260.75" text-anchor="end">90</text>
<line class="grid" x1="617" y1="186.50" x2="1066" y2="186.50" />
<text class="tick" x="609" y="189.50" text-anchor="end">100</text>
<line class="grid" x1="617" y1="115.25" x2="1066" y2="115.25" />
<text class="tick" x="609" y="118.25" text-anchor="end">110</text>
<line class="grid" x1="617" y1="44.00" x2="1066" y2="44.00" />
<text class="tick" x="609" y="47.00" text-anchor="end">120</text>
<line class="grid" x1="617.00" y1="44" x2="617.00" y2="329" />
<text class="tick" x="617.00" y="345" text-anchor="middle">5</text>
<line class="grid" x1="628.51" y1="44" x2="628.51" y2="329" />
<text class="tick" x="628.51" y="345" text-anchor="middle">10</text>
<line class="grid" x1="651.54" y1="44" x2="651.54" y2="329" />
<text class="tick" x="651.54" y="345" text-anchor="middle">20</text>
<line class="grid" x1="720.62" y1="44" x2="720.62" y2="329" />
<text class="tick" x="720.62" y="345" text-anchor="middle">50</text>
<line class="grid" x1="835.74" y1="44" x2="835.74" y2="329" />
<text class="tick" x="835.74" y="345" text-anchor="middle">100</text>
<line class="grid" x1="1066.00" y1="44" x2="1066.00" y2="329" />
<text class="tick" x="1066.00" y="345" text-anchor="middle">200</text>
<line class="axis" x1="617" y1="329" x2="1066" y2="329" />
<line class="axis" x1="617" y1="44" x2="617" y2="329" />
<path class="series" stroke="#ea580c" d="M 617.00 237.02 L 628.51 242.36 L 651.54 249.84 L 720.62 220.91 L 835.74 221.41 L 1066.00 175.88" />
<line x1="617.00" y1="193.13" x2="617.00" y2="280.91" stroke="#ea580c" stroke-width="1.4" />
<line x1="612.00" y1="193.13" x2="622.00" y2="193.13" stroke="#ea580c" stroke-width="1.4" />
<line x1="612.00" y1="280.91" x2="622.00" y2="280.91" stroke="#ea580c" stroke-width="1.4" />
<line x1="628.51" y1="214.93" x2="628.51" y2="269.79" stroke="#ea580c" stroke-width="1.4" />
<line x1="623.51" y1="214.93" x2="633.51" y2="214.93" stroke="#ea580c" stroke-width="1.4" />
<line x1="623.51" y1="269.79" x2="633.51" y2="269.79" stroke="#ea580c" stroke-width="1.4" />
<line x1="651.54" y1="235.38" x2="651.54" y2="264.31" stroke="#ea580c" stroke-width="1.4" />
<line x1="646.54" y1="235.38" x2="656.54" y2="235.38" stroke="#ea580c" stroke-width="1.4" />
<line x1="646.54" y1="264.31" x2="656.54" y2="264.31" stroke="#ea580c" stroke-width="1.4" />
<line x1="720.62" y1="203.39" x2="720.62" y2="238.44" stroke="#ea580c" stroke-width="1.4" />
<line x1="715.62" y1="203.39" x2="725.62" y2="203.39" stroke="#ea580c" stroke-width="1.4" />
<line x1="715.62" y1="238.44" x2="725.62" y2="238.44" stroke="#ea580c" stroke-width="1.4" />
<line x1="835.74" y1="210.23" x2="835.74" y2="232.60" stroke="#ea580c" stroke-width="1.4" />
<line x1="830.74" y1="210.23" x2="840.74" y2="210.23" stroke="#ea580c" stroke-width="1.4" />
<line x1="830.74" y1="232.60" x2="840.74" y2="232.60" stroke="#ea580c" stroke-width="1.4" />
<line x1="1066.00" y1="126.44" x2="1066.00" y2="225.33" stroke="#ea580c" stroke-width="1.4" />
<line x1="1061.00" y1="126.44" x2="1071.00" y2="126.44" stroke="#ea580c" stroke-width="1.4" />
<line x1="1061.00" y1="225.33" x2="1071.00" y2="225.33" stroke="#ea580c" stroke-width="1.4" />
<circle class="marker" cx="617.00" cy="237.02" r="4.2" fill="#ffffff" stroke="#ea580c" />
<circle class="marker" cx="628.51" cy="242.36" r="4.2" fill="#ffffff" stroke="#ea580c" />
<circle class="marker" cx="651.54" cy="249.84" r="4.2" fill="#ffffff" stroke="#ea580c" />
<circle class="marker" cx="720.62" cy="220.91" r="4.2" fill="#ffffff" stroke="#ea580c" />
<circle class="marker" cx="835.74" cy="221.41" r="4.2" fill="#ffffff" stroke="#ea580c" />
<circle class="marker" cx="1066.00" cy="175.88" r="4.2" fill="#ffffff" stroke="#ea580c" />
<text class="axis-label" x="841.5" y="365" text-anchor="middle">Arrival Rate (requests/s)</text>
<text class="axis-label" transform="translate(575, 186.5) rotate(-90)" text-anchor="middle">P95 Latency (ms)</text>
<text class="panel-title" x="279.5" y="405" text-anchor="middle">Observed Throughput</text>
<line class="grid" x1="76" y1="700.00" x2="525" y2="700.00" />
<text class="tick" x="68" y="703.00" text-anchor="end">0</text>
<line class="grid" x1="76" y1="605.00" x2="525" y2="605.00" />
<text class="tick" x="68" y="608.00" text-anchor="end">100</text>
<line class="grid" x1="76" y1="510.00" x2="525" y2="510.00" />
<text class="tick" x="68" y="513.00" text-anchor="end">200</text>
<line class="grid" x1="76" y1="415.00" x2="525" y2="415.00" />
<text class="tick" x="68" y="418.00" text-anchor="end">300</text>
<line class="grid" x1="76.00" y1="415" x2="76.00" y2="700" />
<text class="tick" x="76.00" y="716" text-anchor="middle">5</text>
<line class="grid" x1="87.51" y1="415" x2="87.51" y2="700" />
<text class="tick" x="87.51" y="716" text-anchor="middle">10</text>
<line class="grid" x1="110.54" y1="415" x2="110.54" y2="700" />
<text class="tick" x="110.54" y="716" text-anchor="middle">20</text>
<line class="grid" x1="179.62" y1="415" x2="179.62" y2="700" />
<text class="tick" x="179.62" y="716" text-anchor="middle">50</text>
<line class="grid" x1="294.74" y1="415" x2="294.74" y2="700" />
<text class="tick" x="294.74" y="716" text-anchor="middle">100</text>
<line class="grid" x1="525.00" y1="415" x2="525.00" y2="700" />
<text class="tick" x="525.00" y="716" text-anchor="middle">200</text>
<line class="axis" x1="76" y1="700" x2="525" y2="700" />
<line class="axis" x1="76" y1="415" x2="76" y2="700" />
<path class="series" stroke="#059669" d="M 76.00 695.25 L 87.51 690.50 L 110.54 681.00 L 179.62 652.50 L 294.74 605.02 L 525.00 510.05" />
<circle class="marker" cx="76.00" cy="695.25" r="4.2" fill="#ffffff" stroke="#059669" />
<circle class="marker" cx="87.51" cy="690.50" r="4.2" fill="#ffffff" stroke="#059669" />
<circle class="marker" cx="110.54" cy="681.00" r="4.2" fill="#ffffff" stroke="#059669" />
<circle class="marker" cx="179.62" cy="652.50" r="4.2" fill="#ffffff" stroke="#059669" />
<circle class="marker" cx="294.74" cy="605.02" r="4.2" fill="#ffffff" stroke="#059669" />
<circle class="marker" cx="525.00" cy="510.05" r="4.2" fill="#ffffff" stroke="#059669" />
<text class="axis-label" x="300.5" y="736" text-anchor="middle">Arrival Rate (requests/s)</text>
<text class="axis-label" transform="translate(34, 557.5) rotate(-90)" text-anchor="middle">Throughput (requests/s)</text>
<text class="panel-title" x="820.5" y="405" text-anchor="middle">Max Concurrent Executions</text>
<line class="grid" x1="617" y1="700.00" x2="1066" y2="700.00" />
<text class="tick" x="609" y="703.00" text-anchor="end">0</text>
<line class="grid" x1="617" y1="605.00" x2="1066" y2="605.00" />
<text class="tick" x="609" y="608.00" text-anchor="end">10</text>
<line class="grid" x1="617" y1="510.00" x2="1066" y2="510.00" />
<text class="tick" x="609" y="513.00" text-anchor="end">20</text>
<line class="grid" x1="617" y1="415.00" x2="1066" y2="415.00" />
<text class="tick" x="609" y="418.00" text-anchor="end">30</text>
<line class="grid" x1="617.00" y1="415" x2="617.00" y2="700" />
<text class="tick" x="617.00" y="716" text-anchor="middle">5</text>
<line class="grid" x1="628.51" y1="415" x2="628.51" y2="700" />
<text class="tick" x="628.51" y="716" text-anchor="middle">10</text>
<line class="grid" x1="651.54" y1="415" x2="651.54" y2="700" />
<text class="tick" x="651.54" y="716" text-anchor="middle">20</text>
<line class="grid" x1="720.62" y1="415" x2="720.62" y2="700" />
<text class="tick" x="720.62" y="716" text-anchor="middle">50</text>
<line class="grid" x1="835.74" y1="415" x2="835.74" y2="700" />
<text class="tick" x="835.74" y="716" text-anchor="middle">100</text>
<line class="grid" x1="1066.00" y1="415" x2="1066.00" y2="700" />
<text class="tick" x="1066.00" y="716" text-anchor="middle">200</text>
<line class="axis" x1="617" y1="700" x2="1066" y2="700" />
<line class="axis" x1="617" y1="415" x2="617" y2="700" />
<path class="series" stroke="#2563eb" d="M 617.00 690.50 L 628.51 655.63 L 651.54 643.00 L 720.62 643.00 L 835.74 573.37 L 1066.00 465.63" />
<circle class="marker" cx="617.00" cy="690.50" r="4.2" fill="#ffffff" stroke="#2563eb" />
<circle class="marker" cx="628.51" cy="655.63" r="4.2" fill="#ffffff" stroke="#2563eb" />
<circle class="marker" cx="651.54" cy="643.00" r="4.2" fill="#ffffff" stroke="#2563eb" />
<circle class="marker" cx="720.62" cy="643.00" r="4.2" fill="#ffffff" stroke="#2563eb" />
<circle class="marker" cx="835.74" cy="573.37" r="4.2" fill="#ffffff" stroke="#2563eb" />
<circle class="marker" cx="1066.00" cy="465.63" r="4.2" fill="#ffffff" stroke="#2563eb" />
<text class="axis-label" x="841.5" y="736" text-anchor="middle">Arrival Rate (requests/s)</text>
<text class="axis-label" transform="translate(575, 557.5) rotate(-90)" text-anchor="middle">Concurrent Executions</text>
</svg>