<?xml version="1.0" encoding="UTF-8"?>
<svg xmlns="http://www.w3.org/2000/svg" width="1200" height="390" viewBox="0 0 1200 390">
<style>
      text { font-family: Arial, Helvetica, sans-serif; fill: #1f2937; }
      .title { font-size: 17px; font-weight: 700; }
      .axis-label { font-size: 12px; font-weight: 600; }
      .tick { font-size: 10px; fill: #4b5563; }
      .panel-title { font-size: 13px; font-weight: 700; }
      .grid { stroke: #e5e7eb; stroke-width: 1; }
      .axis { stroke: #6b7280; stroke-width: 1.2; }
      .series { fill: none; stroke-width: 2.5; stroke-linecap: round; stroke-linejoin: round; }
      .marker { stroke-width: 1.5; }
      .raw-point { opacity: 0.65; }
    </style>
<text class="panel-title" x="206" y="34" text-anchor="middle">Average Latency</text>
<line class="grid" x1="76" y1="330.00" x2="378" y2="330.00" />
<text class="tick" x="68" y="333.00" text-anchor="end">84</text>
<line class="grid" x1="76" y1="272.80" x2="378" y2="272.80" />
<text class="tick" x="68" y="275.80" text-anchor="end">86</text>
<line class="grid" x1="76" y1="215.60" x2="378" y2="215.60" />
<text class="tick" x="68" y="218.60" text-anchor="end">88</text>
<line class="grid" x1="76" y1="158.40" x2="378" y2="158.40" />
<text class="tick" x="68" y="161.40" text-anchor="end">90</text>
<line class="grid" x1="76" y1="101.20" x2="378" y2="101.20" />
<text class="tick" x="68" y="104.20" text-anchor="end">92</text>
<line class="grid" x1="76" y1="44.00" x2="378" y2="44.00" />
<text class="tick" x="68" y="47.00" text-anchor="end">94</text>
<line class="grid" x1="151.50" y1="44" x2="151.50" y2="330" />
<text class="tick" x="151.50" y="346" text-anchor="middle">Burst ~195 rps</text>
<line class="grid" x1="302.50" y1="44" x2="302.50" y2="330" />
<text class="tick" x="302.50" y="346" text-anchor="middle">Sustained 200 rps</text>
<line class="axis" x1="76" y1="330" x2="378" y2="330" />
<line class="axis" x1="76" y1="44" x2="76" y2="330" />
<path class="series" stroke="#2563eb" d="M 151.50 164.98 L 302.50 192.15" />
<line x1="151.50" y1="99.77" x2="151.50" y2="230.19" stroke="#2563eb" stroke-width="1.4" />
<line x1="146.50" y1="99.77" x2="156.50" y2="99.77" stroke="#2563eb" stroke-width="1.4" />
<line x1="146.50" y1="230.19" x2="156.50" y2="230.19" stroke="#2563eb" stroke-width="1.4" />
<line x1="302.50" y1="113.78" x2="302.50" y2="270.51" stroke="#2563eb" stroke-width="1.4" />
<line x1="297.50" y1="113.78" x2="307.50" y2="113.78" stroke="#2563eb" stroke-width="1.4" />
<line x1="297.50" y1="270.51" x2="307.50" y2="270.51" stroke="#2563eb" stroke-width="1.4" />
<circle class="marker" cx="151.50" cy="164.98" r="4.2" fill="#ffffff" stroke="#2563eb" />
<circle class="marker" cx="302.50" cy="192.15" r="4.2" fill="#ffffff" stroke="#2563eb" />
<text class="axis-label" x="227" y="366" text-anchor="middle">Workload Pattern</text>
<text class="axis-label" transform="translate(34, 187) rotate(-90)" text-anchor="middle">Average Latency (ms)</text>
<text class="panel-title" x="600" y="34" text-anchor="middle">P95 Latency</text>
<line class="grid" x1="470" y1="330.00" x2="772" y2="330.00" />
<text class="tick" x="462" y="333.00" text-anchor="end">90</text>
<line class="grid" x1="470" y1="234.67" x2="772" y2="234.67" />
<text class="tick" x="462" y="237.67" text-anchor="end">100</text>
<line class="grid" x1="470" y1="139.33" x2="772" y2="139.33" />
<text class="tick" x="462" y="142.33" text-anchor="end">110</text>
<line class="grid" x1="470" y1="44.00" x2="772" y2="44.00" />
<text class="tick" x="462" y="47.00" text-anchor="end">120</text>
<line class="grid" x1="545.50" y1="44" x2="545.50" y2="330" />
<text class="tick" x="545.50" y="346" text-anchor="middle">Burst ~195 rps</text>
<line class="grid" x1="696.50" y1="44" x2="696.50" y2="330" />
<text class="tick" x="696.50" y="346" text-anchor="middle">Sustained 200 rps</text>
<line class="axis" x1="470" y1="330" x2="772" y2="330" />
<line class="axis" x1="470" y1="44" x2="470" y2="330" />
<path class="series" stroke="#ea580c" d="M 545.50 203.97 L 696.50 220.46" />
<line x1="545.50" y1="121.70" x2="545.50" y2="286.24" stroke="#ea580c" stroke-width="1.4" />
<line x1="540.50" y1="121.70" x2="550.50" y2="121.70" stroke="#ea580c" stroke-width="1.4" />
<line x1="540.50" y1="286.24" x2="550.50" y2="286.24" stroke="#ea580c" stroke-width="1.4" />
<line x1="696.50" y1="154.30" x2="696.50" y2="286.62" stroke="#ea580c" stroke-width="1.4" />
<line x1="691.50" y1="154.30" x2="701.50" y2="154.30" stroke="#ea580c" stroke-width="1.4" />
<line x1="691.50" y1="286.62" x2="701.50" y2="286.62" stroke="#ea580c" stroke-width="1.4" />
<circle class="marker" cx="545.50" cy="203.97" r="4.2" fill="#ffffff" stroke="#ea580c" />
<circle class="marker" cx="696.50" cy="220.46" r="4.2" fill="#ffffff" stroke="#ea580c" />
<text class="axis-label" x="621" y="366" text-anchor="middle">Workload Pattern</text>
<text class="axis-label" transform="translate(428, 187) rotate(-90)" text-anchor="middle">P95 Latency (ms)</text>
<text class="panel-title" x="994" y="34" text-anchor="middle">Max Concurrent Executions</text>
<line class="grid" x1="864" y1="330.00" x2="1166" y2="330.00" />
<text class="tick" x="856" y="333.00" text-anchor="end">0</text>
<line class="grid" x1="864" y1="234.67" x2="1166" y2="234.67" />
<text class="tick" x="856" y="237.67" text-anchor="end">20</text>
<line class="grid" x1="864" y1="139.33" x2="1166" y2="139.33" />
<text class="tick" x="856" y="142.33" text-anchor="end">40</text>
<line class="grid" x1="864" y1="44.00" x2="1166" y2="44.00" />
<text class="tick" x="856" y="47.00" text-anchor="end">60</text>
<line class="grid" x1="939.50" y1="44" x2="939.50" y2="330" />
<text class="tick" x="939.50" y="346" text-anchor="middle">Burst ~195 rps</text>
<line class="grid" x1="1090.50" y1="44" x2="1090.50" y2="330" />
<text class="tick" x="1090.50" y="346" text-anchor="middle">Sustained 200 rps</text>
<line class="axis" x1="864" y1="330" x2="1166" y2="330" />
<line class="axis" x1="864" y1="44" x2="864" y2="330" />
<path class="series" stroke="#059669" d="M 939.50 185.43 L 1090.50 212.41" />
<line x1="939.50" y1="66.83" x2="939.50" y2="304.02" stroke="#059669" stroke-width="1.4" />
<line x1="934.50" y1="66.83" x2="944.50" y2="66.83" stroke="#059669" stroke-width="1.4" />
<line x1="934.50" y1="304.02" x2="944.50" y2="304.02" stroke="#059669" stroke-width="1.4" />
<line x1="1090.50" y1="126.75" x2="1090.50" y2="298.06" stroke="#059669" stroke-width="1.4" />
<line x1="1085.50" y1="126.75" x2="1095.50" y2="126.75" stroke="#059669" stroke-width="1.4" />
<line x1="1085.50" y1="298.06" x2="1095.50" y2="298.06" stroke="#059669" stroke-width="1.4" />
<circle class="marker" cx="939.50" cy="185.43" r="4.2" fill="#ffffff" stroke="#059669" />
<circle class="marker" cx="1090.50" cy="212.41" r="4.2" fill="#ffffff" stroke="#059669" />
<text class="axis-label" x="1015" y="366" text-anchor="middle">Workload Pattern</text>
<text class="axis-label" transform="translate(822, 187) rotate(-90)" text-anchor="middle">Concurrent Executions</text>
</svg>